HIERARCHY
ROOT RootJoint
{
    OFFSET   0.000000   0.000000   0.000000
    CHANNELS 6 Xposition Yposition Zposition Xrotation Yrotation Zrotation
    JOINT pelvis_lowerback
    {
        OFFSET   0.000000   0.093605   0.000000
        CHANNELS 3 Xrotation Yrotation Zrotation
        JOINT lowerback_torso
        {
            OFFSET   0.000000   0.100000   0.000000
            CHANNELS 3 Xrotation Yrotation Zrotation
            JOINT torso_head
            {
                OFFSET   0.000000   0.282350   0.000000
                CHANNELS 3 Xrotation Yrotation Zrotation
                End Site
                {
                    OFFSET   0.000000   0.192650   0.000000
                }
            }
            JOINT rTorso_Clavicle
            {
                OFFSET  -0.001000   0.157500   0.000000
                CHANNELS 3 Xrotation Yrotation Zrotation
                JOINT rShoulder
                {
                    OFFSET  -0.117647   0.000000   0.000000
                    CHANNELS 3 Xrotation Yrotation Zrotation
                    JOINT rElbow
                    {
                        OFFSET  -0.245000   0.000000   0.000000
                        CHANNELS 3 Xrotation Yrotation Zrotation
                        JOINT rWrist
                        {
                            OFFSET  -0.240000   0.000000   0.000000
                            CHANNELS 3 Xrotation Yrotation Zrotation
                            End Site
                            {
                                OFFSET  -0.116353  -0.002500   0.000000
                            }
                        }
                    }
                }
            }
            JOINT lTorso_Clavicle
            {
                OFFSET   0.001000   0.157500   0.000000
                CHANNELS 3 Xrotation Yrotation Zrotation
                JOINT lShoulder
                {
                    OFFSET   0.117647   0.000000   0.000000
                    CHANNELS 3 Xrotation Yrotation Zrotation
                    JOINT lElbow
                    {
                        OFFSET   0.245000   0.000000   0.000000
                        CHANNELS 3 Xrotation Yrotation Zrotation
                        JOINT lWrist
                        {
                            OFFSET   0.240000   0.000000   0.000000
                            CHANNELS 3 Xrotation Yrotation Zrotation
                            End Site
                            {
                                OFFSET   0.116353  -0.002500   0.000000
                            }
                        }
                    }
                }
            }
        }
    }
    JOINT rHip
    {
        OFFSET  -0.100000  -0.051395   0.000000
        CHANNELS 3 Xrotation Yrotation Zrotation
        JOINT rKnee
        {
            OFFSET   0.000000  -0.410000   0.000000
            CHANNELS 3 Xrotation Yrotation Zrotation
            JOINT rAnkle
            {
                OFFSET   0.000000  -0.390000   0.000000
                CHANNELS 3 Xrotation Yrotation Zrotation
                JOINT rToeJoint
                {
                    OFFSET   0.000000  -0.050000   0.130000
                    CHANNELS 3 Xrotation Yrotation Zrotation
                    End Site
                    {
                        OFFSET  -0.010000   0.002000   0.060000
                    }
                }
            }
        }
    }
    JOINT lHip
    {
        OFFSET   0.100000  -0.051395   0.000000
        CHANNELS 3 Xrotation Yrotation Zrotation
        JOINT lKnee
        {
            OFFSET   0.000000  -0.410000   0.000000
            CHANNELS 3 Xrotation Yrotation Zrotation
            JOINT lAnkle
            {
                OFFSET   0.000000  -0.390000   0.000000
                CHANNELS 3 Xrotation Yrotation Zrotation
                JOINT lToeJoint
                {
                    OFFSET   0.000000  -0.050000   0.130000
                    CHANNELS 3 Xrotation Yrotation Zrotation
                    End Site
                    {
                        OFFSET   0.010000   0.002000   0.060000
                    }
                }
            }
        }
    }
}
MOTION
Frames: 14
Frame Time:   0.008333
 -2.318170   0.917536   4.056503   7.188799  52.623098 -12.137207   1.717825   9.688681  -4.177622   0.817411   5.546215  -5.304413  -5.437628 -11.266886   4.351161  -6.692363  31.654003  -8.506963 -37.392397  34.178803  23.905885   0.002115  20.818084  -0.001040  -2.145034   1.524243  -7.109323  -1.657717  -3.605951   0.659541   0.832531  -8.455576 -39.061289   0.016569 -63.921045   0.011216  -3.297620  -2.965718   6.973043  -0.157346 -14.100166  -4.912491  33.323726  -0.000244  -0.000614  15.932239  -3.867913  13.334916 -24.178402  -0.000573   0.000166 -15.583457 -17.847490   9.575800  16.342965   0.000098   0.000301  -5.635497  -8.296083   1.254161   1.057684  -0.000024   0.000002
 -2.318875   0.917479   4.056337   6.917451  52.590544 -12.008643   1.774806   9.577267  -4.172384   0.907264   5.513838  -5.210278  -5.373342 -11.115527   4.417058  -6.583745  31.742775  -8.218367 -36.954616  34.525384  24.124743   0.006436  21.434501  -0.002934  -2.007488   1.283786  -7.131176  -1.839309  -4.110880   0.424757   0.161731  -9.003555 -39.298826   0.018245 -64.724349   0.011859  -3.317299  -2.758863   7.197272  -0.205092 -14.097381  -4.930841  33.905572  -0.000203  -0.000985  15.355138  -3.853725  13.328159 -22.223526  -0.000772  -0.000555 -15.484181 -17.827126   9.696794  16.468464   0.000034   0.000247  -5.670871  -8.298126   1.155676   1.045328  -0.000026   0.000001
 -2.319647   0.917398   4.056224   6.632971  52.575486 -11.885714   1.823187   9.459216  -4.160188   0.997464   5.464551  -5.109129  -5.304162 -10.967646   4.486925  -6.468931  31.850572  -7.936097 -36.555847  34.876948  24.358630   0.009690  22.035784  -0.004274  -1.855794   1.209269  -7.141196  -2.043458  -4.645163   0.177546  -0.504419  -9.562538 -39.548165   0.019832 -65.499916   0.012544  -3.326542  -2.663918   7.402570  -0.213837 -14.091802  -4.962786  34.528196   0.000043  -0.001334  14.818287  -3.840871  13.321577 -20.434289  -0.000073  -0.001343 -15.388608 -17.818742   9.833301  16.625600  -0.000037   0.000223  -5.722803  -8.312322   1.051770   1.033260  -0.000026   0.000001
 -2.320495   0.917316   4.056172   6.363292  52.554556 -11.782413   1.856845   9.339126  -4.149675   1.074789   5.405731  -5.015613  -5.240888 -10.829238   4.554889  -6.350095  31.974766  -7.670736 -36.188773  35.222115  24.595580   0.011893  22.604798  -0.005234  -1.703334   1.198642  -7.123137  -2.253450  -5.180964  -0.065640  -1.148517 -10.108745 -39.796577   0.021141 -66.235659   0.013167  -3.327006  -2.648217   7.578364  -0.199432 -14.082725  -5.010873  35.131123   0.000368  -0.001686  14.318568  -3.829083  13.315333 -18.794230   0.000895  -0.002263 -15.299081 -17.811618   9.985473  16.782492  -0.000103   0.000204  -5.778137  -8.325130   0.952296   1.023704  -0.000025   0.000001
 -2.321426   0.917239   4.056178   6.114778  52.521449 -11.702068   1.877938   9.219822  -4.143181   1.138170   5.342255  -4.932628  -5.184287 -10.700286   4.618610  -6.233317  32.105624  -7.424129 -35.849678  35.555740  24.826169   0.013212  23.140252  -0.005907  -1.553848   1.217082  -7.086001  -2.461830  -5.703242  -0.299236  -1.764115 -10.632031 -40.039466   0.022099 -66.929343   0.013647  -3.322105  -2.678666   7.732009  -0.169706 -14.071452  -5.073348  35.702095   0.000701  -0.002039  13.852633  -3.818287  13.309450 -17.291092   0.001862  -0.003270 -15.216322 -17.803072  10.153693  16.931563  -0.000162   0.000181  -5.833314  -8.332738   0.859473   1.017225  -0.000022   0.000001
 -2.322445   0.917166   4.056237   5.887797  52.475837 -11.644183   1.889262   9.102959  -4.141186   1.189518   5.276781  -4.860026  -5.133288 -10.580184   4.677498  -6.122744  32.236120  -7.196112 -35.535765  35.874697  25.044659   0.013826  23.642675  -0.006349  -1.408626   1.250870  -7.041008  -2.664189  -6.203694  -0.521221  -2.348157 -11.127494 -40.274656   0.022688 -67.581009   0.013944  -3.314117  -2.735044   7.869987  -0.128424 -14.058828  -5.147901  36.239539   0.001007  -0.002377  13.417990  -3.808397  13.303916 -15.913588   0.002712  -0.004279 -15.140270 -17.792951  10.337247  17.071003  -0.000213   0.000156  -5.887016  -8.334613   0.773817   1.013969  -0.000018   0.000001
 -2.323555   0.917096   4.056342   5.681077  52.419299 -11.606889   1.893135   8.989630  -4.143535   1.231031   5.210991  -4.796936  -5.086837 -10.468298   4.731569  -6.020547  32.361827  -6.985785 -35.244636  36.177179  25.248087   0.013905  24.113172  -0.006601  -1.268254   1.292653  -6.996118  -2.857779  -6.677833  -0.730965  -2.899353 -11.592980 -40.500999   0.022915 -68.191707   0.014040  -3.304522  -2.804880   7.996388  -0.077850 -14.045296  -5.232492  36.744506   0.001273  -0.002680  13.012477  -3.799330  13.298700 -14.651270   0.003402  -0.005213 -15.070733 -17.781828  10.534689  17.200533  -0.000256   0.000131  -5.938494  -8.331274   0.695344   1.013933  -0.000014   0.000001
 -2.324725   0.916822   4.056413   5.407254  52.407314 -11.546631   1.937441   8.889687  -4.129951   1.298666   5.155443  -4.682034  -5.028067 -10.326960   4.759306  -5.931133  32.387521  -6.773499 -34.965915  36.431550  25.399098   0.016591  25.151815  -0.007966  -1.133076   1.051866  -6.998265  -3.044003  -7.225690  -0.971639  -3.488263 -12.210181 -40.751528   0.024551 -68.784817   0.015642  -3.285323  -2.719986   8.226810   0.062456 -14.046567  -5.318165  37.242105   0.001669  -0.002941  12.737338  -3.777516  13.211776 -13.470929   0.005262  -0.005917 -15.072252 -17.779633  10.732278  17.544777  -0.000435   0.000295  -6.087227  -8.385741   0.577641   1.006188  -0.000014   0.000001
 -2.325969   0.916479   4.056509   5.129597  52.384849 -11.478039   1.977742   8.791038  -4.125901   1.361234   5.090413  -4.572495  -4.965145 -10.190224   4.790485  -5.856579  32.437351  -6.573029 -34.725997  36.704815  25.555250   0.018180  26.153483  -0.008900  -0.981066   1.012545  -7.021482  -3.241126  -7.791622  -1.217976  -4.065841 -12.822994 -41.009058   0.026057 -69.350944   0.017113  -3.260463  -2.682219   8.404320   0.221045 -14.038830  -5.432735  37.720165   0.002043  -0.003199  12.482767  -3.757364  13.130065 -12.379748   0.006693  -0.006652 -15.093784 -17.776378  10.926364  17.927923  -0.000623   0.000436  -6.254531  -8.435552   0.447942   0.996955  -0.000014   0.000001
 -2.327300   0.916112   4.056655   4.865634  52.346708 -11.417033   2.008270   8.692170  -4.131383   1.411480   5.021411  -4.477987  -4.905995 -10.062470   4.821806  -5.789510  32.507241  -6.390014 -34.512772  36.980511  25.709875   0.018889  27.098557  -0.009610  -0.826038   1.053308  -7.046197  -3.439764  -8.350534  -1.460652  -4.622607 -13.413935 -41.265495   0.027133 -69.886662   0.018176  -3.231165  -2.688968   8.542823   0.384389 -14.026446  -5.564922  38.170346   0.002331  -0.003431  12.245598  -3.738620  13.053549 -11.378549   0.007627  -0.007332 -15.121870 -17.770042  11.126898  18.306518  -0.000794   0.000521  -6.422156  -8.476207   0.320074   0.989690  -0.000013   0.000000
 -2.328725   0.915739   4.056857   4.618466  52.294700 -11.368539   2.029312   8.594364  -4.145276   1.449935   4.950957  -4.398771  -4.851669  -9.943511   4.851177  -5.729359  32.586686  -6.223548 -34.320188  37.250486  25.857856   0.018927  27.986019  -0.010144  -0.672925   1.128831  -7.069790  -3.634484  -8.890429  -1.695552  -5.154064 -13.976072 -41.517150   0.027696 -70.391343   0.018770  -3.199324  -2.724572   8.655590   0.548976 -14.012158  -5.706443  38.592661   0.002523  -0.003622  12.024428  -3.721086  12.981995 -10.460696   0.008130  -0.007894 -15.151292 -17.761664  11.338119  18.668448  -0.000942   0.000559  -6.584909  -8.508268   0.198509   0.985571  -0.000011   0.000000
 -2.330247   0.915365   4.057115   4.387195  52.231601 -11.332598   2.042375   8.498782  -4.166559   1.478717   4.880542  -4.333418  -4.801797  -9.832736   4.877868  -5.676293  32.668499  -6.072061 -34.144461  37.510101  25.996107   0.018472  28.817355  -0.010515  -0.523658   1.220192  -7.094639  -3.821921  -9.404814  -1.920648  -5.657930 -14.506177 -41.761782   0.027753 -70.865283   0.018915  -3.166468  -2.776947   8.750931   0.713356 -13.997230  -5.852753  38.988935   0.002633  -0.003761  11.818134  -3.704637  12.915119  -9.619475   0.008292  -0.008302 -15.179909 -17.752448  11.560614  19.010542  -0.001067   0.000564  -6.741048  -8.532977   0.084614   0.984939  -0.000009   0.000000
 -2.331867   0.914988   4.057422   4.169761  52.159991 -11.307266   2.049087   8.406327  -4.194197   1.499983   4.811288  -4.280276  -4.755837  -9.729543   4.901705  -5.630217  32.748319  -5.934033 -33.982955  37.756814  26.123152   0.017673  29.594911  -0.010727  -0.379127   1.317626  -7.123030  -4.000000  -9.890309  -2.134952  -6.133247 -15.003066 -41.997952   0.027349 -71.309317   0.018666  -3.133668  -2.837797   8.834112   0.876580 -13.982208  -6.001450  39.361049   0.002674  -0.003847  11.625710  -3.689189  12.852627  -8.848569   0.008200  -0.008548 -15.206927 -17.743326  11.793382  19.332563  -0.001170   0.000548  -6.889531  -8.551572  -0.023345   0.987376  -0.000008   0.000000
 -2.333528   0.914451   4.057644   3.888977  52.091510 -11.211595   2.102122   8.324587  -4.232638   1.545474   4.752452  -4.209650  -4.697265  -9.606930   4.899266  -5.577183  32.765276  -5.809735 -33.827306  38.024762  26.143749   0.017299  30.699179  -0.011793  -0.256337   1.217140  -7.136442  -4.137999 -10.443014  -2.338214  -6.518345 -15.686760 -42.130338   0.028928 -71.692661   0.021041  -3.069050  -2.833583   9.050437   1.104597 -13.938137  -6.199874  39.630060   0.002651  -0.003690  11.534340  -3.616346  12.762800  -8.151249   0.008347  -0.008273 -15.253937 -17.725616  11.996716  19.741871  -0.001345   0.000607  -7.061534  -8.582539  -0.213024   0.971298  -0.000016   0.000000
